<svg width="38" height="38" viewBox="0 0 38 38" fill="none" xmlns="http://www.w3.org/2000/svg">
<g clip-path="url(#clip0_1425_1550)">
<path d="M25.9098 23.8298C25.7912 23.5008 25.4285 23.3303 25.0996 23.4488C24.7706 23.5674 24.6001 23.9301 24.7186 24.259C24.7216 24.2671 24.7246 24.2751 24.7279 24.2831C25.3053 25.7898 25.347 26.942 24.8418 27.4485C24.229 28.0601 22.7026 27.8689 20.7578 26.9382C18.1541 25.5863 15.7874 23.8201 13.7502 21.7089C8.7912 16.7493 6.74506 11.8828 8.0106 10.6172C8.41443 10.2983 8.93934 10.1758 9.44264 10.283C9.79132 10.3086 10.0948 10.0467 10.1204 9.69801C10.1452 9.36097 9.90092 9.06389 9.56546 9.02314C8.68524 8.8674 7.78214 9.12403 7.11542 9.71953C4.79579 12.0385 8.34171 18.0877 12.855 22.6016C14.9933 24.8144 17.478 26.6639 20.2114 28.0771C20.7064 28.3142 21.2166 28.5182 21.7385 28.6881L17.2404 30.3936C11.234 28.1101 6.91006 22.7852 5.90812 16.4378C5.85391 16.0924 5.52993 15.8563 5.1845 15.9105C4.83908 15.9647 4.60293 16.2887 4.65714 16.6341C4.75654 17.2672 4.88948 17.9003 5.05219 18.5194C6.51003 24.043 10.3498 28.6317 15.5298 31.0406L8.12646 33.842C8.09251 33.7854 8.04977 33.7346 7.99984 33.6914C6.11831 32.1807 4.93776 29.9653 4.73311 27.5612L4.43936 24.0039C4.41625 23.6592 4.11807 23.3986 3.77335 23.4217C3.76678 23.4221 3.76022 23.4226 3.75373 23.4233C3.40521 23.451 3.14509 23.7561 3.17279 24.1046C3.17287 24.106 3.17303 24.1075 3.17319 24.109L3.472 27.665C3.69453 30.2348 4.89328 32.6215 6.82166 34.3346L1.54046 36.3339L2.49009 32.4366C2.57294 32.0967 2.36466 31.754 2.02477 31.6712C1.68488 31.5883 1.34222 31.7966 1.25937 32.1365L0.0242137 37.2012C-0.0590372 37.5408 0.148773 37.8836 0.488424 37.9668C0.612984 37.9973 0.743796 37.9892 0.863687 37.9438L24.2879 29.0806C24.3252 29.0624 24.3604 29.0403 24.393 29.0147C24.8999 28.9369 25.3699 28.7025 25.737 28.3443C26.3643 27.7169 26.9044 26.4235 25.9098 23.8298Z" fill="#FF4A19"/>
<path d="M31.8849 22.1984C28.4625 20.9172 24.7635 20.558 21.1585 21.1569L18.8965 21.5368C18.5531 21.6028 18.3283 21.9346 18.3943 22.278C18.4581 22.6097 18.7711 22.833 19.1054 22.7852L21.3668 22.4086C24.7524 21.8457 28.2265 22.1833 31.4405 23.3873C31.5118 23.4126 31.587 23.4252 31.6627 23.4247C32.0123 23.4252 32.2963 23.1423 32.2968 22.7926C32.2973 22.5279 32.133 22.2909 31.8849 22.1984Z" fill="#7FCAFE"/>
<path d="M34.1346 12.3904C33.9843 12.0747 33.6065 11.9406 33.2907 12.091L19.9959 18.4218C19.6802 18.5721 19.5461 18.9498 19.6964 19.2656L19.6964 19.2657C19.8467 19.5814 20.2244 19.7155 20.5402 19.5653L20.5403 19.5652L33.8352 13.2343C34.1509 13.084 34.285 12.7062 34.1346 12.3904Z" fill="#7FCAFE"/>
<path d="M15.3821 4.29623C15.3124 3.95357 14.9783 3.73223 14.6356 3.80187C14.2929 3.87151 14.0716 4.2057 14.1412 4.54836C14.1427 4.55595 14.1445 4.56347 14.1463 4.57099C14.9476 8.15102 14.6174 11.8916 13.2011 15.2759L12.2806 17.4847C12.1476 17.8065 12.2994 18.1754 12.6206 18.3102C12.6975 18.3426 12.7802 18.3591 12.8637 18.359C13.1192 18.359 13.3496 18.2055 13.448 17.9696L14.3691 15.7633C15.8866 12.1382 16.2406 8.13123 15.3821 4.29623Z" fill="#7FCAFE"/>
<path d="M34.8289 22.791C33.78 22.791 32.9297 23.6413 32.9297 24.6903C32.9297 25.7392 33.78 26.5895 34.8289 26.5895C35.8779 26.5895 36.7282 25.7392 36.7282 24.6903C36.7282 23.6413 35.8779 22.791 34.8289 22.791ZM34.8289 25.3234C34.4793 25.3234 34.1959 25.0399 34.1959 24.6903C34.1959 24.3407 34.4793 24.0572 34.8289 24.0572C35.1786 24.0572 35.462 24.3407 35.462 24.6903C35.462 25.0399 35.1786 25.3234 34.8289 25.3234Z" fill="#7FCAFE"/>
<path d="M19.6336 5.06445C18.5847 5.06445 17.7344 5.91477 17.7344 6.96371C17.7344 8.01266 18.5847 8.86297 19.6336 8.86297C20.6826 8.86297 21.5329 8.01266 21.5329 6.96371C21.5329 5.91477 20.6826 5.06445 19.6336 5.06445ZM19.6336 7.5968C19.284 7.5968 19.0005 7.31334 19.0005 6.96371C19.0005 6.61409 19.284 6.33063 19.6336 6.33063C19.9833 6.33063 20.2667 6.61409 20.2667 6.96371C20.2667 7.31334 19.9833 7.5968 19.6336 7.5968Z" fill="#7FCAFE"/>
<path d="M13.9361 2.53235C14.6354 2.53235 15.2023 1.96546 15.2023 1.26617C15.2023 0.566885 14.6354 0 13.9361 0C13.2368 0 12.6699 0.566885 12.6699 1.26617C12.6699 1.96546 13.2368 2.53235 13.9361 2.53235Z" fill="#7FCAFE"/>
<path d="M31.6624 3.16602C31.3128 3.16602 31.0293 3.44948 31.0293 3.7991V4.43219C31.0293 4.78181 31.3128 5.06528 31.6624 5.06528C32.012 5.06528 32.2955 4.78181 32.2955 4.43219V3.7991C32.2955 3.44948 32.012 3.16602 31.6624 3.16602Z" fill="#7FCAFE"/>
<path d="M31.6624 0C31.3128 0 31.0293 0.283465 31.0293 0.633087V1.26617C31.0293 1.6158 31.3128 1.89926 31.6624 1.89926C32.012 1.89926 32.2955 1.6158 32.2955 1.26617V0.633087C32.2955 0.283465 32.012 0 31.6624 0Z" fill="#7FCAFE"/>
<path d="M33.5611 1.89844H32.928C32.5784 1.89844 32.2949 2.1819 32.2949 2.53152C32.2949 2.88115 32.5784 3.16461 32.928 3.16461H33.5611C33.9107 3.16461 34.1942 2.88115 34.1942 2.53152C34.1942 2.1819 33.9107 1.89844 33.5611 1.89844Z" fill="#7FCAFE"/>
<path d="M30.397 1.89844H29.7639C29.4143 1.89844 29.1309 2.1819 29.1309 2.53152C29.1309 2.88115 29.4143 3.16461 29.7639 3.16461H30.397C30.7467 3.16461 31.0301 2.88115 31.0301 2.53152C31.0301 2.1819 30.7467 1.89844 30.397 1.89844Z" fill="#7FCAFE"/>
<path d="M27.2317 6.95117H24.053C23.7034 6.95117 23.4199 7.23464 23.4199 7.58426V10.763C23.4199 11.1126 23.7034 11.3961 24.053 11.3961H27.2317C27.5814 11.3961 27.8648 11.1126 27.8648 10.763V7.58426C27.8648 7.23464 27.5814 6.95117 27.2317 6.95117ZM26.5986 10.1299H24.6861V8.21735H26.5986V10.1299Z" fill="#7FCAFE"/>
<path d="M22.6196 12.2374C22.3872 11.9893 22.0004 11.969 21.7434 12.1915L15.4125 17.8893C15.1528 18.1232 15.1318 18.5234 15.3657 18.7832C15.5996 19.0429 15.9998 19.0639 16.2596 18.83L22.5904 13.1323C22.8457 12.8932 22.8587 12.4926 22.6196 12.2374Z" fill="#7FCAFE"/>
<path d="M34.1956 14.5605C33.846 14.5605 33.5625 14.844 33.5625 15.1936V15.8267C33.5625 16.1763 33.846 16.4598 34.1956 16.4598C34.5452 16.4598 34.8287 16.1763 34.8287 15.8267V15.1936C34.8287 14.844 34.5452 14.5605 34.1956 14.5605Z" fill="#7FCAFE"/>
<path d="M36.8818 14.4515L36.4342 14.0039C36.1827 13.761 35.782 13.7679 35.539 14.0194C35.3021 14.2648 35.3021 14.6537 35.539 14.8991L35.9866 15.3467C36.2381 15.5897 36.6389 15.5827 36.8818 15.3312C37.1188 15.0858 37.1188 14.6968 36.8818 14.4515Z" fill="#7FCAFE"/>
<path d="M37.3599 12.0293H36.7268C36.3772 12.0293 36.0938 12.3128 36.0938 12.6624C36.0938 13.012 36.3772 13.2955 36.7268 13.2955H37.3599C37.7095 13.2955 37.993 13.012 37.993 12.6624C37.993 12.3128 37.7095 12.0293 37.3599 12.0293Z" fill="#7FCAFE"/>
<path d="M36.8661 9.97653C36.6208 9.73959 36.2319 9.73959 35.9865 9.97653L35.5389 10.4241C35.2917 10.6714 35.2917 11.0722 35.539 11.3195C35.6577 11.4381 35.8187 11.5048 35.9865 11.5048C36.1544 11.5048 36.3154 11.438 36.4341 11.3193L36.8817 10.8717C37.1246 10.6202 37.1176 10.2194 36.8661 9.97653Z" fill="#7FCAFE"/>
<path d="M34.1956 8.86328C33.846 8.86328 33.5625 9.14675 33.5625 9.49637V10.1295C33.5625 10.4791 33.846 10.7625 34.1956 10.7625C34.5452 10.7625 34.8287 10.4791 34.8287 10.1295V9.49637C34.8287 9.14675 34.5452 8.86328 34.1956 8.86328Z" fill="#7FCAFE"/>
<path d="M32.8525 10.4241L32.4049 9.97655C32.1534 9.73369 31.7527 9.74057 31.5097 9.99206C31.2728 10.2374 31.2728 10.6263 31.5097 10.8717L31.9573 11.3193C32.2088 11.5623 32.6096 11.5553 32.8525 11.3038C33.0895 11.0584 33.0895 10.6695 32.8525 10.4241Z" fill="#7FCAFE"/>
<path d="M7.57463 2.73821C7.50008 2.50919 7.302 2.34237 7.06373 2.30771L5.20562 2.03739L4.37691 0.354008C4.1922 0.0403923 3.78821 -0.0641462 3.4746 0.120557C3.37821 0.177297 3.29789 0.25762 3.24115 0.354008L2.40864 2.03739L0.55053 2.30771C0.204469 2.35765 -0.03555 2.6787 0.0143847 3.02476C0.0342478 3.16254 0.0989809 3.28987 0.198534 3.38713L1.54258 4.69762L1.22603 6.54813C1.16526 6.89245 1.39507 7.22086 1.73939 7.28164C1.87803 7.30609 2.02079 7.28369 2.14528 7.21793L3.80713 6.34174L5.46898 7.2154C5.77848 7.3781 6.16126 7.25916 6.32396 6.94966C6.38878 6.82645 6.41109 6.68535 6.38759 6.54813L6.07105 4.69762L7.41572 3.38713C7.58784 3.21865 7.64941 2.96715 7.57463 2.73821ZM4.94668 4.02338C4.79759 4.16859 4.72946 4.37783 4.76435 4.58303L4.92136 5.49784L4.10151 5.06544C3.91721 4.96866 3.69705 4.96866 3.51274 5.06544L2.68973 5.4972L2.84674 4.58239C2.88227 4.37799 2.81532 4.16907 2.66757 4.02338L2.0022 3.37573L2.92081 3.24215C3.12703 3.21224 3.30533 3.08269 3.39752 2.89585L3.80713 2.06461L4.21737 2.89585C4.30948 3.08253 4.48746 3.212 4.69345 3.24215L5.61142 3.37573L4.94668 4.02338Z" fill="#7FCAFE"/>
<path d="M35.8545 31.7329H35.852L35.5911 31.3417C34.1286 29.1546 31.8289 27.6675 29.2343 27.231C28.8882 27.1817 28.5675 27.4222 28.5181 27.7684C28.4704 28.1028 28.6937 28.4158 29.0254 28.4795C30.8968 28.7971 32.6023 29.7479 33.8565 31.1726C32.802 31.3623 31.8797 31.9956 31.3241 32.9117C30.6423 34.1329 31.0795 35.6755 32.3007 36.3573C33.5218 37.0391 35.0644 36.6019 35.7462 35.3808C36.0067 34.878 36.1473 34.3218 36.1571 33.7556C36.8307 34.734 36.8846 36.0116 36.2958 37.0432C36.1174 37.344 36.2165 37.7324 36.5173 37.9107C36.818 38.0891 37.2064 37.9899 37.3848 37.6892C37.3905 37.6796 37.3959 37.6698 37.4011 37.6599C38.5603 35.5894 37.8775 32.9731 35.8545 31.7329ZM34.6421 34.7629C34.3042 35.3751 33.534 35.5975 32.9218 35.2596C32.3096 34.9217 32.0872 34.1515 32.4251 33.5393C32.427 33.5359 32.4289 33.5324 32.4308 33.529C32.8044 32.9173 33.4345 32.5072 34.1452 32.4135C34.2552 32.4105 34.3642 32.4358 34.4617 32.4869C34.996 32.7851 35.0245 34.0779 34.6421 34.7629Z" fill="#7FCAFE"/>
</g>
<defs>
<clipPath id="clip0_1425_1550">
<rect width="38" height="38" fill="white"/>
</clipPath>
</defs>
</svg>
