<svg width="38" height="38" viewBox="0 0 38 38" fill="none" xmlns="http://www.w3.org/2000/svg">
<g clip-path="url(#clip0_1425_1615)">
<path d="M12.0902 23.8298C12.2088 23.5008 12.5715 23.3303 12.9004 23.4488C13.2294 23.5674 13.3999 23.9301 13.2814 24.259C13.2784 24.2671 13.2754 24.2751 13.2721 24.2831C12.6947 25.7898 12.653 26.942 13.1582 27.4485C13.771 28.0601 15.2974 27.8689 17.2422 26.9382C19.8459 25.5863 22.2126 23.8201 24.2498 21.7089C29.2088 16.7493 31.2549 11.8828 29.9894 10.6172C29.5856 10.2983 29.0607 10.1758 28.5574 10.283C28.2087 10.3086 27.9052 10.0467 27.8796 9.69801C27.8548 9.36097 28.0991 9.06389 28.4345 9.02314C29.3148 8.8674 30.2179 9.12403 30.8846 9.71953C33.2042 12.0385 29.6583 18.0877 25.145 22.6016C23.0067 24.8144 20.522 26.6639 17.7886 28.0771C17.2936 28.3142 16.7834 28.5182 16.2615 28.6881L20.7596 30.3936C26.766 28.1101 31.0899 22.7852 32.0919 16.4378C32.1461 16.0924 32.4701 15.8563 32.8155 15.9105C33.1609 15.9647 33.3971 16.2887 33.3429 16.6341C33.2435 17.2672 33.1105 17.9003 32.9478 18.5194C31.49 24.043 27.6502 28.6317 22.4702 31.0406L29.8735 33.842C29.9075 33.7854 29.9502 33.7346 30.0002 33.6914C31.8817 32.1807 33.0622 29.9653 33.2669 27.5612L33.5606 24.0039C33.5837 23.6592 33.8819 23.3986 34.2266 23.4217C34.2332 23.4221 34.2398 23.4226 34.2463 23.4233C34.5948 23.451 34.8549 23.7561 34.8272 24.1046C34.8271 24.106 34.827 24.1075 34.8268 24.109L34.528 27.665C34.3055 30.2348 33.1067 32.6215 31.1783 34.3346L36.4595 36.3339L35.5099 32.4366C35.4271 32.0967 35.6353 31.754 35.9752 31.6712C36.3151 31.5883 36.6578 31.7966 36.7406 32.1365L37.9758 37.2012C38.059 37.5408 37.8512 37.8836 37.5116 37.9668C37.387 37.9973 37.2562 37.9892 37.1363 37.9438L13.7121 29.0806C13.6748 29.0624 13.6396 29.0403 13.607 29.0147C13.1001 28.9369 12.6301 28.7025 12.263 28.3443C11.6357 27.7169 11.0956 26.4235 12.0902 23.8298Z" fill="#FF4A19"/>
<path d="M6.11509 22.1984C9.53747 20.9172 13.2365 20.558 16.8415 21.1569L19.1035 21.5368C19.4469 21.6028 19.6717 21.9346 19.6057 22.278C19.5419 22.6097 19.2289 22.833 18.8946 22.7852L16.6332 22.4086C13.2476 21.8457 9.77346 22.1833 6.55951 23.3873C6.48821 23.4126 6.41295 23.4252 6.3373 23.4247C5.98768 23.4252 5.70374 23.1423 5.70318 22.7926C5.70271 22.5279 5.86699 22.2909 6.11509 22.1984Z" fill="#7FCAFE"/>
<path d="M3.86538 12.3904C4.01574 12.0747 4.39353 11.9406 4.70928 12.091L18.0041 18.4218C18.3198 18.5721 18.4539 18.9498 18.3036 19.2656L18.3036 19.2657C18.1533 19.5814 17.7756 19.7155 17.4598 19.5653L17.4597 19.5652L4.16483 13.2343C3.84908 13.084 3.71502 12.7062 3.86538 12.3904Z" fill="#7FCAFE"/>
<path d="M22.6179 4.29623C22.6876 3.95357 23.0217 3.73223 23.3644 3.80187C23.7071 3.87151 23.9284 4.2057 23.8588 4.54836C23.8573 4.55595 23.8555 4.56347 23.8537 4.57099C23.0524 8.15102 23.3826 11.8916 24.7989 15.2759L25.7194 17.4847C25.8524 17.8065 25.7006 18.1754 25.3794 18.3102C25.3025 18.3426 25.2198 18.3591 25.1363 18.359C24.8808 18.359 24.6504 18.2055 24.552 17.9696L23.6309 15.7633C22.1134 12.1382 21.7594 8.13123 22.6179 4.29623Z" fill="#7FCAFE"/>
<path d="M3.17105 22.791C4.22 22.791 5.07031 23.6413 5.07031 24.6903C5.07031 25.7392 4.22 26.5895 3.17105 26.5895C2.12211 26.5895 1.27179 25.7392 1.27179 24.6903C1.27179 23.6413 2.12211 22.791 3.17105 22.791ZM3.17105 25.3234C3.52067 25.3234 3.80414 25.0399 3.80414 24.6903C3.80414 24.3407 3.52067 24.0572 3.17105 24.0572C2.82143 24.0572 2.53797 24.3407 2.53797 24.6903C2.53797 25.0399 2.82143 25.3234 3.17105 25.3234Z" fill="#7FCAFE"/>
<path d="M18.3664 5.06445C19.4153 5.06445 20.2656 5.91477 20.2656 6.96371C20.2656 8.01266 19.4153 8.86297 18.3664 8.86297C17.3174 8.86297 16.4671 8.01266 16.4671 6.96371C16.4671 5.91477 17.3174 5.06445 18.3664 5.06445ZM18.3664 7.5968C18.716 7.5968 18.9995 7.31334 18.9995 6.96371C18.9995 6.61409 18.716 6.33063 18.3664 6.33063C18.0167 6.33063 17.7333 6.61409 17.7333 6.96371C17.7333 7.31334 18.0167 7.5968 18.3664 7.5968Z" fill="#7FCAFE"/>
<path d="M24.0639 2.53235C23.3646 2.53235 22.7977 1.96546 22.7977 1.26617C22.7977 0.566885 23.3646 0 24.0639 0C24.7632 0 25.3301 0.566885 25.3301 1.26617C25.3301 1.96546 24.7632 2.53235 24.0639 2.53235Z" fill="#7FCAFE"/>
<path d="M6.33762 3.16602C6.68724 3.16602 6.9707 3.44948 6.9707 3.7991V4.43219C6.9707 4.78181 6.68724 5.06528 6.33762 5.06528C5.98799 5.06528 5.70453 4.78181 5.70453 4.43219V3.7991C5.70453 3.44948 5.98799 3.16602 6.33762 3.16602Z" fill="#7FCAFE"/>
<path d="M6.33762 0C6.68724 0 6.9707 0.283465 6.9707 0.633087V1.26617C6.9707 1.6158 6.68724 1.89926 6.33762 1.89926C5.98799 1.89926 5.70453 1.6158 5.70453 1.26617V0.633087C5.70453 0.283465 5.98799 0 6.33762 0Z" fill="#7FCAFE"/>
<path d="M4.4389 1.89844H5.07199C5.42161 1.89844 5.70508 2.1819 5.70508 2.53152C5.70508 2.88115 5.42161 3.16461 5.07199 3.16461H4.4389C4.08928 3.16461 3.80582 2.88115 3.80582 2.53152C3.80582 2.1819 4.08928 1.89844 4.4389 1.89844Z" fill="#7FCAFE"/>
<path d="M7.60297 1.89844H8.23605C8.58568 1.89844 8.86914 2.1819 8.86914 2.53152C8.86914 2.88115 8.58568 3.16461 8.23605 3.16461H7.60297C7.25335 3.16461 6.96988 2.88115 6.96988 2.53152C6.96988 2.1819 7.25335 1.89844 7.60297 1.89844Z" fill="#7FCAFE"/>
<path d="M10.7683 6.95117H13.947C14.2966 6.95117 14.5801 7.23464 14.5801 7.58426V10.763C14.5801 11.1126 14.2966 11.3961 13.947 11.3961H10.7683C10.4186 11.3961 10.1352 11.1126 10.1352 10.763V7.58426C10.1352 7.23464 10.4186 6.95117 10.7683 6.95117ZM11.4014 10.1299H13.3139V8.21735H11.4014V10.1299Z" fill="#7FCAFE"/>
<path d="M15.3804 12.2374C15.6128 11.9893 15.9996 11.969 16.2566 12.1915L22.5875 17.8893C22.8472 18.1232 22.8682 18.5234 22.6343 18.7832C22.4004 19.0429 22.0002 19.0639 21.7404 18.83L15.4096 13.1323C15.1543 12.8932 15.1413 12.4926 15.3804 12.2374Z" fill="#7FCAFE"/>
<path d="M3.80441 14.5605C4.15404 14.5605 4.4375 14.844 4.4375 15.1936V15.8267C4.4375 16.1763 4.15404 16.4598 3.80441 16.4598C3.45479 16.4598 3.17133 16.1763 3.17133 15.8267V15.1936C3.17133 14.844 3.45479 14.5605 3.80441 14.5605Z" fill="#7FCAFE"/>
<path d="M1.11819 14.4515L1.56579 14.0039C1.81728 13.761 2.21803 13.7679 2.46097 14.0194C2.69791 14.2648 2.69791 14.6537 2.46097 14.8991L2.01338 15.3467C1.76189 15.5897 1.36114 15.5827 1.11819 15.3312C0.881182 15.0858 0.881182 14.6968 1.11819 14.4515Z" fill="#7FCAFE"/>
<path d="M0.640077 12.0293H1.27316C1.62279 12.0293 1.90625 12.3128 1.90625 12.6624C1.90625 13.012 1.62279 13.2955 1.27316 13.2955H0.640077C0.290455 13.2955 0.00698996 13.012 0.00698996 12.6624C0.00698996 12.3128 0.290455 12.0293 0.640077 12.0293Z" fill="#7FCAFE"/>
<path d="M1.13385 9.97653C1.37917 9.73959 1.76813 9.73959 2.01353 9.97653L2.46112 10.4241C2.70834 10.6714 2.70826 11.0722 2.46096 11.3195C2.34226 11.4381 2.18129 11.5048 2.01353 11.5048C1.8456 11.5048 1.68464 11.438 1.56593 11.3193L1.11834 10.8717C0.875394 10.6202 0.882359 10.2194 1.13385 9.97653Z" fill="#7FCAFE"/>
<path d="M3.80441 8.86328C4.15404 8.86328 4.4375 9.14675 4.4375 9.49637V10.1295C4.4375 10.4791 4.15404 10.7625 3.80441 10.7625C3.45479 10.7625 3.17133 10.4791 3.17133 10.1295V9.49637C3.17133 9.14675 3.45479 8.86328 3.80441 8.86328Z" fill="#7FCAFE"/>
<path d="M5.14749 10.4241L5.59509 9.97655C5.84658 9.73369 6.24732 9.74057 6.49027 9.99206C6.7272 10.2374 6.7272 10.6263 6.49027 10.8717L6.04268 11.3193C5.79119 11.5623 5.39044 11.5553 5.14749 11.3038C4.91048 11.0584 4.91048 10.6695 5.14749 10.4241Z" fill="#7FCAFE"/>
<path d="M30.4254 2.73821C30.4999 2.50919 30.698 2.34237 30.9363 2.30771L32.7944 2.03739L33.6231 0.354008C33.8078 0.0403923 34.2118 -0.0641462 34.5254 0.120557C34.6218 0.177297 34.7021 0.25762 34.7589 0.354008L35.5914 2.03739L37.4495 2.30771C37.7955 2.35765 38.0356 2.6787 37.9856 3.02476C37.9658 3.16254 37.901 3.28987 37.8015 3.38713L36.4574 4.69762L36.774 6.54813C36.8347 6.89245 36.6049 7.22086 36.2606 7.28164C36.122 7.30609 35.9792 7.28369 35.8547 7.21793L34.1929 6.34174L32.531 7.2154C32.2215 7.3781 31.8387 7.25916 31.676 6.94966C31.6112 6.82645 31.5889 6.68535 31.6124 6.54813L31.929 4.69762L30.5843 3.38713C30.4122 3.21865 30.3506 2.96715 30.4254 2.73821ZM33.0533 4.02338C33.2024 4.16859 33.2705 4.37783 33.2356 4.58303L33.0786 5.49784L33.8985 5.06544C34.0828 4.96866 34.303 4.96866 34.4873 5.06544L35.3103 5.4972L35.1533 4.58239C35.1177 4.37799 35.1847 4.16907 35.3324 4.02338L35.9978 3.37573L35.0792 3.24215C34.873 3.21224 34.6947 3.08269 34.6025 2.89585L34.1929 2.06461L33.7826 2.89585C33.6905 3.08253 33.5125 3.212 33.3066 3.24215L32.3886 3.37573L33.0533 4.02338Z" fill="#7FCAFE"/>
<path d="M2.1455 31.7329H2.14803L2.40886 31.3417C3.87137 29.1546 6.17114 27.6675 8.76568 27.231C9.11182 27.1817 9.43248 27.4222 9.48186 27.7684C9.52958 28.1028 9.30634 28.4158 8.9746 28.4795C7.1032 28.7971 5.39774 29.7479 4.14352 31.1726C5.198 31.3623 6.12025 31.9956 6.67586 32.9117C7.3577 34.1329 6.92047 35.6755 5.69933 36.3573C4.47818 37.0391 2.93559 36.6019 2.25375 35.3808C1.99332 34.878 1.85269 34.3218 1.84288 33.7556C1.16928 34.734 1.11538 36.0116 1.70423 37.0432C1.88261 37.344 1.78345 37.7324 1.48273 37.9107C1.18202 38.0891 0.793618 37.9899 0.615247 37.6892C0.609549 37.6796 0.604088 37.6698 0.598866 37.6599C-0.560316 35.5894 0.122468 32.9731 2.1455 31.7329ZM3.35786 34.7629C3.69577 35.3751 4.466 35.5975 5.07819 35.2596C5.69039 34.9217 5.91284 34.1515 5.57493 33.5393C5.57303 33.5359 5.57113 33.5324 5.56923 33.529C5.19563 32.9173 4.56547 32.5072 3.85483 32.4135C3.74475 32.4105 3.63578 32.4358 3.53829 32.4869C3.00396 32.7851 2.97547 34.0779 3.35786 34.7629Z" fill="#7FCAFE"/>
</g>
<defs>
<clipPath id="clip0_1425_1615">
<rect width="38" height="38" fill="white" transform="matrix(-1 0 0 1 38 0)"/>
</clipPath>
</defs>
</svg>
