<svg width="41" height="41" viewBox="0 0 41 41" fill="none" xmlns="http://www.w3.org/2000/svg">
<path d="M34.1663 41C34.8912 41 35.5864 40.712 36.099 40.1994C36.6116 39.6868 36.8996 38.9916 36.8996 38.2667V11.0987C36.8977 10.3742 36.6099 9.67973 36.0987 9.16623L27.7334 0.800867C27.2199 0.289749 26.5254 0.00194353 25.8009 0L6.83294 0C6.10802 0 5.41278 0.287975 4.90018 0.800575C4.38758 1.31317 4.09961 2.00841 4.09961 2.73333V38.2667C4.09961 38.9916 4.38758 39.6868 4.90018 40.1994C5.41278 40.712 6.10802 41 6.83294 41H34.1663ZM34.5667 9.56667H28.6996C28.3371 9.56667 27.9895 9.42268 27.7332 9.16638C27.4769 8.91008 27.3329 8.56246 27.3329 8.2V2.3329L34.5667 9.56667ZM5.46628 38.2667V2.73333C5.46628 2.37087 5.61026 2.02325 5.86656 1.76695C6.12286 1.51065 6.47048 1.36667 6.83294 1.36667H25.8009C25.8563 1.36875 25.9115 1.37422 25.9663 1.38307V8.2C25.9663 8.92493 26.2543 9.62016 26.7669 10.1328C27.2795 10.6454 27.9747 10.9333 28.6996 10.9333H35.5165C35.5254 10.9881 35.5309 11.0433 35.5329 11.0987V38.2667C35.5329 38.6291 35.389 38.9767 35.1327 39.233C34.8764 39.4893 34.5287 39.6333 34.1663 39.6333H6.83294C6.47048 39.6333 6.12286 39.4893 5.86656 39.233C5.61026 38.9767 5.46628 38.6291 5.46628 38.2667Z" fill="#FF4A19"/>
<path d="M10.2497 17.7671H30.7497C30.931 17.7671 31.1048 17.6951 31.2329 17.5669C31.3611 17.4388 31.4331 17.265 31.4331 17.0837C31.4331 16.9025 31.3611 16.7287 31.2329 16.6005C31.1048 16.4724 30.931 16.4004 30.7497 16.4004H10.2497C10.0685 16.4004 9.8947 16.4724 9.76655 16.6005C9.6384 16.7287 9.56641 16.9025 9.56641 17.0837C9.56641 17.265 9.6384 17.4388 9.76655 17.5669C9.8947 17.6951 10.0685 17.7671 10.2497 17.7671Z" fill="#FF4A19"/>
<path d="M10.2497 23.2329H30.7497C30.931 23.2329 31.1048 23.1609 31.2329 23.0327C31.3611 22.9046 31.4331 22.7308 31.4331 22.5495C31.4331 22.3683 31.3611 22.1945 31.2329 22.0664C31.1048 21.9382 30.931 21.8662 30.7497 21.8662H10.2497C10.0685 21.8662 9.8947 21.9382 9.76655 22.0664C9.6384 22.1945 9.56641 22.3683 9.56641 22.5495C9.56641 22.7308 9.6384 22.9046 9.76655 23.0327C9.8947 23.1609 10.0685 23.2329 10.2497 23.2329Z" fill="#FF4A19"/>
<path d="M10.2497 28.6997H30.7497C30.931 28.6997 31.1048 28.6277 31.2329 28.4995C31.3611 28.3714 31.4331 28.1976 31.4331 28.0163C31.4331 27.8351 31.3611 27.6613 31.2329 27.5332C31.1048 27.405 30.931 27.333 30.7497 27.333H10.2497C10.0685 27.333 9.8947 27.405 9.76655 27.5332C9.6384 27.6613 9.56641 27.8351 9.56641 28.0163C9.56641 28.1976 9.6384 28.3714 9.76655 28.4995C9.8947 28.6277 10.0685 28.6997 10.2497 28.6997Z" fill="#FF4A19"/>
<path d="M10.2497 34.1665H23.9164C24.0976 34.1665 24.2714 34.0945 24.3996 33.9663C24.5277 33.8382 24.5997 33.6644 24.5997 33.4831C24.5997 33.3019 24.5277 33.1281 24.3996 32.9999C24.2714 32.8718 24.0976 32.7998 23.9164 32.7998H10.2497C10.0685 32.7998 9.8947 32.8718 9.76655 32.9999C9.6384 33.1281 9.56641 33.3019 9.56641 33.4831C9.56641 33.6644 9.6384 33.8382 9.76655 33.9663C9.8947 34.0945 10.0685 34.1665 10.2497 34.1665Z" fill="#FF4A19"/>
</svg>
