<svg width="18" height="18" viewBox="0 0 18 18" fill="none" xmlns="http://www.w3.org/2000/svg">
<g clip-path="url(#clip0_862_35)">
<path d="M9 0C7.21997 0 5.47991 0.527841 3.99987 1.51677C2.51983 2.50571 1.36628 3.91131 0.685088 5.55585C0.00389957 7.20038 -0.17433 9.00998 0.172937 10.7558C0.520203 12.5016 1.37737 14.1053 2.63604 15.364C3.89472 16.6226 5.49836 17.4798 7.24419 17.8271C8.99002 18.1743 10.7996 17.9961 12.4442 17.3149C14.0887 16.6337 15.4943 15.4802 16.4832 14.0001C17.4722 12.5201 18 10.78 18 9C18 6.61305 17.0518 4.32387 15.364 2.63604C13.6761 0.948211 11.387 0 9 0ZM11.9524 14.7975H6.04763C5.84872 14.7975 5.65795 14.7185 5.5173 14.5778C5.37665 14.4372 5.29763 14.2464 5.29763 14.0475C5.29763 13.8486 5.37665 13.6578 5.5173 13.5172C5.65795 13.3765 5.84872 13.2975 6.04763 13.2975H11.9524C12.1513 13.2975 12.3421 13.3765 12.4827 13.5172C12.6234 13.6578 12.7024 13.8486 12.7024 14.0475C12.7024 14.2464 12.6234 14.4372 12.4827 14.5778C12.3421 14.7185 12.1513 14.7975 11.9524 14.7975ZM12.4826 9.156L9.528 12.1125C9.38736 12.2531 9.19663 12.3321 8.99775 12.3321C8.79888 12.3321 8.60815 12.2531 8.4675 12.1125L5.51738 9.16275C5.37645 9.02212 5.29716 8.83126 5.29695 8.63217C5.29674 8.43308 5.37562 8.24205 5.51625 8.10112C5.65688 7.9602 5.84774 7.8809 6.04683 7.88069C6.24593 7.88048 6.43695 7.95937 6.57788 8.1L8.25 9.77213V4.13688C8.25 3.93796 8.32902 3.7472 8.46967 3.60655C8.61033 3.46589 8.80109 3.38688 9 3.38688C9.19892 3.38688 9.38968 3.46589 9.53033 3.60655C9.67099 3.7472 9.75 3.93796 9.75 4.13688V9.76762L11.4221 8.0955C11.5636 7.95888 11.753 7.88329 11.9497 7.88499C12.1463 7.8867 12.3344 7.96558 12.4735 8.10464C12.6125 8.24369 12.6914 8.4318 12.6931 8.62845C12.6948 8.8251 12.6192 9.01455 12.4826 9.156Z" fill="url(#paint0_linear_862_35)" fill-opacity="0.65"/>
</g>
<defs>
<linearGradient id="paint0_linear_862_35" x1="-6.75" y1="22.125" x2="16.125" y2="0.750001" gradientUnits="userSpaceOnUse">
<stop stop-color="#7FCAFE"/>
<stop offset="1" stop-color="#D3E6FC"/>
</linearGradient>
<clipPath id="clip0_862_35">
<rect width="18" height="18" fill="white"/>
</clipPath>
</defs>
</svg>
