<svg width="26" height="26" viewBox="0 0 26 26" fill="none" xmlns="http://www.w3.org/2000/svg">
<path fill-rule="evenodd" clip-rule="evenodd" d="M24.5787 6.08073C22.0724 8.58705 16.1897 14.4685 14.755 15.8985C14.445 16.2074 14.076 16.4514 13.6799 16.6106C12.5293 17.088 9.72232 18.1891 8.8971 18.2445C8.4055 18.2775 7.92333 18.096 7.57438 17.747C7.22543 17.3981 7.04388 16.9159 7.07689 16.4243C7.1323 15.5991 8.23338 12.7945 8.70258 11.6486C8.86645 11.2419 9.11048 10.8729 9.42053 10.5641L19.2407 0.742702C19.7158 0.267609 20.3618 0 21.0338 0C21.7058 0 22.3518 0.267609 22.8269 0.742702L24.5787 2.49454C25.0538 2.96963 25.3214 3.61566 25.3214 4.28763C25.3214 4.9596 25.0538 5.60563 24.5787 6.08073ZM8.84876 16.4727C9.65513 16.3713 12.0117 15.3881 13.002 14.9766C13.0055 14.9755 13.0091 14.9743 13.0114 14.9731C13.1965 14.8988 13.3639 14.788 13.5042 14.6477L13.5054 14.6466C14.9425 13.2166 20.8228 7.33625 23.3279 4.82992C23.4717 4.6861 23.5531 4.49158 23.5531 4.28763C23.5531 4.08368 23.4717 3.88917 23.3279 3.74534L21.5761 1.99351C21.4323 1.84968 21.2377 1.76834 21.0338 1.76834C20.8298 1.76834 20.6353 1.84968 20.4915 1.99351L10.6702 11.8149C10.5287 11.9551 10.4179 12.1237 10.3436 12.3088L10.3412 12.3135C9.93453 13.3062 8.95015 15.6651 8.84876 16.4727Z" fill="#11002E"/>
<path fill-rule="evenodd" clip-rule="evenodd" d="M22.2433 7.16534C22.5876 7.51076 22.5876 8.07073 22.2433 8.41615C21.8979 8.76156 21.338 8.76156 20.9925 8.41615L16.9053 4.32893C16.5599 3.98351 16.5599 3.42354 16.9053 3.07812C17.2507 2.73389 17.8107 2.73389 18.1561 3.07812L22.2433 7.16534Z" fill="#11002E"/>
<path fill-rule="evenodd" clip-rule="evenodd" d="M8.54697 2.33301C9.03503 2.33301 9.43114 2.72912 9.43114 3.21718C9.43114 3.70524 9.03503 4.10135 8.54697 4.10135H4.42085C2.95548 4.10135 1.76834 5.28849 1.76834 6.75385V20.9006C1.76834 21.6044 2.04774 22.2787 2.54523 22.7762C3.04272 23.2737 3.71705 23.5531 4.42085 23.5531H19.7464C20.4502 23.5531 21.1246 23.2737 21.6221 22.7762C22.1196 22.2787 22.399 21.6044 22.399 20.9006V16.7744C22.399 16.2864 22.7951 15.8903 23.2831 15.8903C23.7712 15.8903 24.1673 16.2864 24.1673 16.7744V20.9006C24.1673 22.0736 23.7016 23.197 22.8729 24.027C22.0429 24.8557 20.9194 25.3214 19.7464 25.3214H4.42085C3.24785 25.3214 2.12436 24.8557 1.29442 24.027C0.465662 23.197 0 22.0736 0 20.9006V6.75385C0 4.31237 1.97936 2.33301 4.42085 2.33301H8.54697Z" fill="#11002E"/>
</svg>
