<svg width="43" height="43" viewBox="0 0 43 43" fill="none" xmlns="http://www.w3.org/2000/svg">
<path fill-rule="evenodd" clip-rule="evenodd" d="M21.2953 0C25.2616 0.0452604 28.8447 1.02006 32.0448 2.92439C35.2066 4.79071 37.8368 7.43699 39.6838 10.6102C41.5766 13.8295 42.5455 17.4343 42.5906 21.4248C42.4782 26.8847 40.7561 31.548 37.4243 35.4146C34.0925 39.2813 29.8253 41.6735 25.4079 42.5905V27.2827H29.5842L30.5287 21.267H24.2048V17.327C24.1697 16.5102 24.428 15.7078 24.933 15.0648C25.4388 14.4201 26.3293 14.0813 27.6048 14.0483H31.4235V8.77875C31.3688 8.76112 30.8488 8.69141 29.8638 8.56961C28.7466 8.4389 27.6232 8.36909 26.4985 8.36047C23.9528 8.37222 21.9396 9.09029 20.4587 10.5147C18.9778 11.9387 18.2213 13.9989 18.1892 16.6954V21.267H13.3767V27.2827H18.1892V42.5905C12.7653 41.6735 8.49803 39.2813 5.16624 35.4146C1.83444 31.548 0.112423 26.8847 0 21.4248C0.0449797 17.4342 1.01388 13.8293 2.90672 10.6102C4.75375 7.43699 7.38397 4.79071 10.5458 2.92439C13.7458 1.02042 17.3289 0.0456271 21.2953 0Z" fill="url(#paint0_linear_290_301)"/>
<defs>
<linearGradient id="paint0_linear_290_301" x1="10.5" y1="7.00841e-07" x2="32" y2="46.5" gradientUnits="userSpaceOnUse">
<stop stop-color="#7FCAFE"/>
<stop offset="1" stop-color="#D3E6FC"/>
</linearGradient>
</defs>
</svg>
