<svg width="9" height="9" viewBox="0 0 9 9" fill="none" xmlns="http://www.w3.org/2000/svg">
<path d="M8.77704 7.3016L1.72373 0.248289C1.41611 -0.0593255 0.91739 -0.0593255 0.610256 0.248289L0.238523 0.619445C-0.0690912 0.927156 -0.0690912 1.42588 0.238523 1.73301L7.29184 8.78633C7.59955 9.09394 8.09827 9.09394 8.4054 8.78633L8.77656 8.41517C9.08475 8.10804 9.08475 7.60922 8.77704 7.3016Z" fill="#FF4A19"/>
<path d="M7.29184 0.248217L0.238523 7.30153C-0.0690912 7.60915 -0.0690912 8.10796 0.238523 8.4151L0.60968 8.78625C0.91739 9.09387 1.41611 9.09387 1.72324 8.78625L8.77704 1.73342C9.08475 1.4258 9.08475 0.927084 8.77704 0.61995L8.40588 0.248794C8.09827 -0.0593976 7.59955 -0.0593976 7.29184 0.248217Z" fill="#FF4A19"/>
</svg>
