<svg width="50" height="24" viewBox="0 0 50 24" fill="none" xmlns="http://www.w3.org/2000/svg">
<path d="M46.5777 3.72502C42.0145 -0.837995 34.5898 -0.837799 30.0267 3.72502L16.7245 17.0271C15.3386 18.413 13.5183 19.1059 11.6978 19.1059C9.87736 19.1059 8.05704 18.413 6.67109 17.0271C3.89939 14.2554 3.89939 9.74557 6.67109 6.97377C9.44298 4.20198 13.953 4.20227 16.7245 6.97377L19.6791 9.92842L22.928 6.67957L19.9733 3.72492C15.4102 -0.837896 7.98554 -0.838091 3.42233 3.72492C-1.14078 8.28812 -1.14078 15.7128 3.42233 20.2759C7.98563 24.839 15.4102 24.8389 19.9733 20.2759L33.2755 6.97368C36.0471 4.20227 40.5571 4.20188 43.3289 6.97368C46.1006 9.74547 46.1006 14.2553 43.3289 17.027C41.9432 18.4128 40.1224 19.1058 38.3022 19.1058C36.4815 19.1058 34.6616 18.413 33.2755 17.027L30.3209 14.0724L27.072 17.3213L30.0267 20.2759C34.5899 24.8389 42.0146 24.839 46.5777 20.2759C51.1408 15.7128 51.1408 8.28822 46.5777 3.72502Z" fill="#FF4A19"/>
</svg>
