<svg width="43" height="43" viewBox="0 0 43 43" fill="none" xmlns="http://www.w3.org/2000/svg">
<g clip-path="url(#clip0_290_302)">
<path d="M25.6152 21.5C25.6152 23.7728 23.7728 25.6152 21.5 25.6152C19.2272 25.6152 17.3848 23.7728 17.3848 21.5C17.3848 19.2272 19.2272 17.3848 21.5 17.3848C23.7728 17.3848 25.6152 19.2272 25.6152 21.5Z" fill="url(#paint0_linear_290_302)"/>
<path d="M31.1242 14.219C30.9264 13.6829 30.6108 13.1977 30.2007 12.7994C29.8024 12.3893 29.3175 12.0737 28.7811 11.8759C28.3461 11.707 27.6926 11.5059 26.489 11.4511C25.1869 11.3917 24.7965 11.3789 21.5001 11.3789C18.2034 11.3789 17.813 11.3914 16.5112 11.4508C15.3076 11.5059 14.6537 11.707 14.219 11.8759C13.6827 12.0737 13.1974 12.3893 12.7995 12.7994C12.3894 13.1977 12.0738 13.6826 11.8757 14.219C11.7067 14.654 11.5056 15.3078 11.4508 16.5115C11.3915 17.8132 11.3787 18.2036 11.3787 21.5003C11.3787 24.7967 11.3915 25.1871 11.4508 26.4892C11.5056 27.6929 11.7067 28.3464 11.8757 28.7814C12.0738 29.3178 12.3891 29.8027 12.7992 30.2009C13.1974 30.611 13.6823 30.9266 14.2187 31.1244C14.6537 31.2937 15.3076 31.4948 16.5112 31.5496C17.813 31.609 18.203 31.6214 21.4998 31.6214C24.7968 31.6214 25.1872 31.609 26.4886 31.5496C27.6923 31.4948 28.3461 31.2937 28.7811 31.1244C29.8578 30.7091 30.7088 29.8581 31.1242 28.7814C31.2931 28.3464 31.4942 27.6929 31.5493 26.4892C31.6087 25.1871 31.6212 24.7967 31.6212 21.5003C31.6212 18.2036 31.6087 17.8132 31.5493 16.5115C31.4946 15.3078 31.2935 14.654 31.1242 14.219ZM21.5001 27.8395C17.9987 27.8395 15.1603 25.0014 15.1603 21.5C15.1603 17.9986 17.9987 15.1605 21.5001 15.1605C25.0012 15.1605 27.8396 17.9986 27.8396 21.5C27.8396 25.0014 25.0012 27.8395 21.5001 27.8395ZM28.0902 16.3914C27.272 16.3914 26.6087 15.7281 26.6087 14.9099C26.6087 14.0917 27.272 13.4283 28.0902 13.4283C28.9084 13.4283 29.5718 14.0917 29.5718 14.9099C29.5714 15.7281 28.9084 16.3914 28.0902 16.3914Z" fill="url(#paint1_linear_290_302)"/>
<path d="M21.5 0C9.62769 0 0 9.62769 0 21.5C0 33.3723 9.62769 43 21.5 43C33.3723 43 43 33.3723 43 21.5C43 9.62769 33.3723 0 21.5 0ZM33.7712 26.5899C33.7115 27.9041 33.5025 28.8014 33.1974 29.5868C32.5561 31.2451 31.2451 32.5561 29.5868 33.1974C28.8017 33.5025 27.9041 33.7112 26.5902 33.7712C25.2737 33.8313 24.8531 33.8457 21.5003 33.8457C18.1472 33.8457 17.7269 33.8313 16.4101 33.7712C15.0962 33.7112 14.1986 33.5025 13.4136 33.1974C12.5895 32.8874 11.8434 32.4016 11.2267 31.7733C10.5988 31.1569 10.1129 30.4105 9.80288 29.5868C9.49778 28.8017 9.2888 27.9041 9.2291 26.5902C9.1684 25.2734 9.1543 24.8528 9.1543 21.5C9.1543 18.1472 9.1684 17.7266 9.22877 16.4101C9.28848 15.0959 9.49712 14.1986 9.80222 13.4132C10.1122 12.5895 10.5984 11.8431 11.2267 11.2267C11.8431 10.5984 12.5895 10.1126 13.4132 9.80255C14.1986 9.49745 15.0959 9.2888 16.4101 9.22877C17.7266 9.16873 18.1472 9.1543 21.5 9.1543C24.8528 9.1543 25.2734 9.16873 26.5899 9.2291C27.9041 9.2888 28.8014 9.49745 29.5868 9.80222C30.4105 10.1122 31.1569 10.5984 31.7737 11.2267C32.4016 11.8434 32.8878 12.5895 33.1974 13.4132C33.5029 14.1986 33.7115 15.0959 33.7716 16.4101C33.8316 17.7266 33.8457 18.1472 33.8457 21.5C33.8457 24.8528 33.8316 25.2734 33.7712 26.5899Z" fill="url(#paint2_linear_290_302)"/>
</g>
<defs>
<linearGradient id="paint0_linear_290_302" x1="1.5" y1="-1" x2="39.5" y2="41.5" gradientUnits="userSpaceOnUse">
<stop stop-color="#7FCAFE"/>
<stop offset="1" stop-color="#D3E6FC"/>
</linearGradient>
<linearGradient id="paint1_linear_290_302" x1="4.00024" y1="-3.5" x2="35.5002" y2="40.5" gradientUnits="userSpaceOnUse">
<stop stop-color="#7FCAFE"/>
<stop offset="1" stop-color="#D3E6FC"/>
</linearGradient>
<linearGradient id="paint2_linear_290_302" x1="2.83317e-07" y1="-2" x2="38.5" y2="45.5" gradientUnits="userSpaceOnUse">
<stop stop-color="#7FCAFE"/>
<stop offset="1" stop-color="#D3E6FC"/>
</linearGradient>
<clipPath id="clip0_290_302">
<rect width="43" height="43" fill="white"/>
</clipPath>
</defs>
</svg>
