<svg width="63" height="58" viewBox="0 0 63 58" fill="none" xmlns="http://www.w3.org/2000/svg">
<path fill-rule="evenodd" clip-rule="evenodd" d="M46.3962 41.9824L33.1944 28.2775L19.992 41.9824L10.7618 33.9071L1.3125 41.9824V55.4638H46.3962V41.9824ZM16.6038 12.145H46.3962C47.4836 12.145 48.365 12.9564 48.365 13.9575V44.0426H61.6875V2.53638H16.6038V12.145ZM51.662 39.7621H56.1278C56.6705 39.7621 57.1121 39.3561 57.1121 38.8559C57.1121 38.3556 56.6705 37.9496 56.1278 37.9496H51.662C51.1186 37.9496 50.6776 38.3556 50.6776 38.8559C50.6776 39.3561 51.1186 39.7621 51.662 39.7621ZM46.3962 39.251V13.9575H1.3125V39.5096L9.42244 32.5786C10.1843 31.9279 11.3643 31.9339 12.1183 32.5931L19.8713 39.376L31.7212 27.0752C32.0952 26.6873 32.6314 26.465 33.1944 26.465C33.7575 26.465 34.2937 26.6873 34.6671 27.0752L46.3962 39.251ZM15.1029 18.0163C11.1077 18.0163 7.8645 21.0027 7.8645 24.6809C7.8645 28.3591 11.1077 31.3449 15.1029 31.3449C19.0982 31.3449 22.342 28.3591 22.342 24.6809C22.342 21.0027 19.0982 18.0163 15.1029 18.0163ZM15.1029 19.8288C18.0121 19.8288 20.3733 22.0026 20.3733 24.6809C20.3733 27.3586 18.0121 29.5324 15.1029 29.5324C12.1944 29.5324 9.83325 27.3586 9.83325 24.6809C9.83325 22.0026 12.1944 19.8288 15.1029 19.8288ZM22.1635 8.6294H26.6293C27.1727 8.6294 27.6137 8.2234 27.6137 7.72315C27.6137 7.2229 27.1727 6.8169 26.6293 6.8169H22.1635C21.6202 6.8169 21.1792 7.2229 21.1792 7.72315C21.1792 8.2234 21.6202 8.6294 22.1635 8.6294ZM51.662 8.6294H56.1278C56.6705 8.6294 57.1121 8.2234 57.1121 7.72315C57.1121 7.2229 56.6705 6.8169 56.1278 6.8169H51.662C51.1186 6.8169 50.6776 7.2229 50.6776 7.72315C50.6776 8.2234 51.1186 8.6294 51.662 8.6294ZM36.9128 8.6294H41.3785C41.9219 8.6294 42.3629 8.2234 42.3629 7.72315C42.3629 7.2229 41.9219 6.8169 41.3785 6.8169H36.9128C36.3694 6.8169 35.9284 7.2229 35.9284 7.72315C35.9284 8.2234 36.3694 8.6294 36.9128 8.6294Z" fill="url(#paint0_linear_667_12)"/>
<defs>
<linearGradient id="paint0_linear_667_12" x1="-6.5306e-07" y1="58.0001" x2="57.8023" y2="-4.78513" gradientUnits="userSpaceOnUse">
<stop stop-color="#7FCAFE"/>
<stop offset="1" stop-color="white"/>
</linearGradient>
</defs>
</svg>
