<svg width="46" height="46" viewBox="0 0 46 46" fill="none" xmlns="http://www.w3.org/2000/svg">
<g clip-path="url(#clip0_632_2317)">
<path d="M37.0574 0H32.8413C32.4683 0 32.1662 0.302234 32.1662 0.675176C32.1662 1.04812 32.4684 1.35035 32.8413 1.35035H37.0574C38.1741 1.35035 39.0827 2.25894 39.0827 3.3757V34.7918C39.0827 35.9087 38.1741 36.8172 37.0574 36.8172H20.3922C20.0193 36.8172 19.7172 37.1194 19.7172 37.4923C19.7172 37.8652 20.0194 38.1674 20.3922 38.1674H37.0574C37.8167 38.1674 38.5181 37.9152 39.0827 37.4904V37.4922C39.0827 38.6091 38.1741 39.5176 37.0574 39.5176H10.3064C9.93344 39.5176 9.6313 39.8198 9.6313 40.1927C9.6313 40.5655 9.93353 40.8678 10.3064 40.8678H12.8991V42.218H8.94202C7.82526 42.218 6.91667 41.3094 6.91667 40.1927C6.91667 39.0759 7.82526 38.1673 8.94202 38.1673H17.6917C18.0647 38.1673 18.3669 37.8651 18.3669 37.4922C18.3669 37.1194 18.0647 36.8171 17.6917 36.8171H10.9815V1.35026H30.1407C30.5137 1.35026 30.8158 1.04803 30.8158 0.675086C30.8158 0.302145 30.5137 0 30.1407 0H8.94202C7.08063 0 5.56641 1.51432 5.56641 3.37561V40.1928C5.56641 42.0542 7.08072 43.5685 8.94202 43.5685H12.8991V45.3238C12.8833 45.8309 13.4903 46.1765 13.9185 45.9047L16.308 44.4884L18.6977 45.9047C19.1259 46.1767 19.7329 45.8308 19.7171 45.3238V43.5685H30.1407C30.5137 43.5685 30.8158 43.2662 30.8158 42.8934C30.8158 42.5205 30.5136 42.2182 30.1407 42.2182H19.7171V40.8679H37.0573C37.8166 40.8679 38.518 40.6158 39.0826 40.191V40.1929C39.0826 41.3097 38.174 42.2182 37.0573 42.2182H32.8412C32.4682 42.2182 32.1661 42.5204 32.1661 42.8934C32.1661 43.2662 32.4683 43.5685 32.8412 43.5685H37.0573C38.9187 43.5685 40.4329 42.0542 40.4329 40.1928V3.37561C40.433 1.51432 38.9187 0 37.0574 0ZM6.91667 3.37561C6.91667 2.25876 7.82526 1.35026 8.94202 1.35026H9.63121V36.8172H8.94202C8.18275 36.8172 7.48116 37.0692 6.91667 37.4939V3.37561ZM18.3669 44.1389L16.6523 43.1227C16.5461 43.0598 16.4271 43.0283 16.308 43.0283C16.189 43.0283 16.0699 43.0598 15.9638 43.1227L14.2493 44.1388V40.8679H18.3668V44.1389H18.3669Z" fill="#FF4A19"/>
<g clip-path="url(#clip1_632_2317)">
<path d="M30.5562 14.2621L27.5845 13.8303L26.2555 11.1374C25.7422 10.0973 24.2579 10.0976 23.7447 11.1374L22.4157 13.8302L19.444 14.2621C18.296 14.4289 17.8378 15.8406 18.6681 16.65L20.8185 18.7461L20.3109 21.7057C20.1148 22.849 21.3157 23.7211 22.3422 23.1816L25.0001 21.7841L27.6582 23.1816C28.6832 23.7204 29.8855 22.8489 29.6895 21.7057L29.1818 18.7461L31.3322 16.65C32.1627 15.8402 31.7037 14.4288 30.5562 14.2621ZM30.4945 15.7907L28.1183 18.1069C27.9769 18.2448 27.9123 18.4434 27.9457 18.638L28.5067 21.9086C28.5348 22.0729 28.3639 22.1969 28.2165 22.1195L25.2793 20.5753C25.1045 20.4834 24.8957 20.4834 24.7209 20.5753L21.7837 22.1195C21.6362 22.197 21.4654 22.0729 21.4935 21.9086L22.0545 18.638C22.0878 18.4434 22.0233 18.2448 21.8819 18.1069L19.5057 15.7907C19.3863 15.6744 19.4516 15.4736 19.6165 15.4496L22.9004 14.9724C23.0958 14.944 23.2648 14.8213 23.3522 14.6442L24.8208 11.6685C24.8945 11.5191 25.1057 11.519 25.1794 11.6685L26.6481 14.6442C26.7355 14.8213 26.9044 14.944 27.0998 14.9724L30.3837 15.4496C30.5486 15.4736 30.6138 15.6744 30.4945 15.7907Z" fill="#FF4A19"/>
<path d="M20.7366 10.6578L20.019 9.6702C19.8242 9.40216 19.449 9.34268 19.181 9.53752C18.9129 9.73228 18.8534 10.1075 19.0482 10.3756L19.7658 11.3632C19.9607 11.6314 20.3359 11.6906 20.6039 11.4959C20.8719 11.3011 20.9314 10.9259 20.7366 10.6578Z" fill="#FF4A19"/>
<path d="M18.3554 19.5085C18.253 19.1934 17.9146 19.0208 17.5994 19.1233L16.4147 19.5082C16.0996 19.6107 15.9271 19.9491 16.0295 20.2643C16.1321 20.5799 16.4711 20.7518 16.7856 20.6495L17.9702 20.2646C18.2854 20.1622 18.4578 19.8237 18.3554 19.5085Z" fill="#FF4A19"/>
<path d="M30.8187 9.5375C30.5507 9.34273 30.1755 9.40211 29.9807 9.67018L29.2631 10.6578C29.0683 10.9259 29.1277 11.3011 29.3958 11.4958C29.664 11.6907 30.0392 11.6311 30.2339 11.3632L30.9514 10.3756C31.1462 10.1075 31.0868 9.73223 30.8187 9.5375Z" fill="#FF4A19"/>
<path d="M33.5854 19.5083L32.4008 19.1233C32.0857 19.0208 31.7472 19.1934 31.6448 19.5086C31.5424 19.8237 31.7148 20.1622 32.03 20.2646L33.2146 20.6495C33.5291 20.7518 33.8681 20.5799 33.9706 20.2643C34.073 19.9492 33.9006 19.6107 33.5854 19.5083Z" fill="#FF4A19"/>
<path d="M25.0004 24.1592C24.669 24.1592 24.4004 24.4278 24.4004 24.7592V25.9769C24.4004 26.3082 24.669 26.5769 25.0004 26.5769C25.3317 26.5769 25.6003 26.3082 25.6003 25.9769V24.7592C25.6004 24.4278 25.3317 24.1592 25.0004 24.1592Z" fill="#FF4A19"/>
</g>
</g>
<defs>
<clipPath id="clip0_632_2317">
<rect width="46" height="46" fill="white"/>
</clipPath>
<clipPath id="clip1_632_2317">
<rect width="18" height="18" fill="white" transform="translate(16 9)"/>
</clipPath>
</defs>
</svg>
