<svg width="14" height="23" viewBox="0 0 14 23" fill="none" xmlns="http://www.w3.org/2000/svg">
<path d="M2.25 4.96155C2.25 2.33786 4.37693 0.210938 7.00061 0.210938C9.62428 0.210938 11.7512 2.33786 11.7512 4.96155V10.1872C11.7512 12.8109 9.62428 14.9378 7.00061 14.9378C4.37693 14.9378 2.25 12.8109 2.25 10.1872V4.96155Z" fill="#4248FF"/>
<path d="M7.00435 18.091C7.00268 18.091 7.00102 18.091 6.99936 18.091C6.99769 18.091 6.99603 18.091 6.99437 18.091C4.55544 18.0887 2.46581 16.6101 1.60242 14.5114C1.43012 14.0925 0.945373 13.8905 0.519714 14.06C0.0940556 14.2295 -0.111336 14.7065 0.0609712 15.1253C1.07114 17.581 3.38956 19.3799 6.16788 19.6823V22.1818C6.16788 22.6337 6.54013 23 6.99936 23C7.45858 23 7.83083 22.6337 7.83083 22.1818V19.6825C10.6097 19.3804 12.9287 17.5813 13.939 15.1253C14.1113 14.7065 13.9059 14.2295 13.4803 14.06C13.0546 13.8905 12.5698 14.0925 12.3976 14.5114C11.5341 16.6105 9.44382 18.0893 7.00435 18.091Z" fill="#4248FF"/>
</svg>
