<svg width="42" height="42" viewBox="0 0 42 42" fill="none" xmlns="http://www.w3.org/2000/svg">
<path fill-rule="evenodd" clip-rule="evenodd" d="M39.293 41.7294H9.27543C6.88879 41.7294 4.94503 39.8348 4.92042 37.399V28.7382H2.70601C1.74643 28.7382 1.74643 27.3111 2.70601 27.3111H4.92042V22.341H2.70601C1.74643 22.341 1.74643 20.9139 2.70601 20.9139H4.92042V15.9438H2.70601C1.74643 15.9438 1.74643 14.5167 2.70601 14.5167H4.92042V9.54662H2.70601C1.74643 9.54662 1.74643 8.11956 2.70601 8.11956H4.92042V4.35506C4.92042 2.09144 6.76577 0.246094 9.02939 0.246094H39.293C39.6867 0.246094 40.0065 0.565953 40.0065 0.959626V41.0159C40.0065 41.4095 39.6867 41.7294 39.293 41.7294ZM6.34749 34.2004C7.13483 33.4869 8.14362 33.0686 9.27543 33.0686H11.7113V1.67316H9.02939C7.55311 1.67316 6.34749 2.87878 6.34749 4.35506V8.11956H8.5865C9.52148 8.11956 9.52148 9.54662 8.5865 9.54662H6.34749V14.5167H8.5865C9.52148 14.5167 9.52148 15.9438 8.5865 15.9438H6.34749V20.9139H8.5865C9.52148 20.9139 9.52148 22.341 8.5865 22.341H6.34749V27.3111H8.5865C9.52148 27.3111 9.52148 28.7382 8.5865 28.7382H6.34749V34.2004ZM13.1384 33.0686H38.5795V1.67316H13.1384V33.0686ZM6.34749 37.276C6.29828 38.9245 7.60232 40.3023 9.27543 40.3023H38.5795V38.1125H24.2104C23.2754 38.1125 23.2754 36.6855 24.2104 36.6855H38.5795V34.4957H9.27543C7.72534 34.4957 6.44591 35.7259 6.34749 37.276Z" fill="#FF4A19"/>
<rect x="18.666" y="7.82715" width="14" height="1.55556" rx="0.777778" fill="#FF4A19"/>
<rect x="18.666" y="13.2715" width="14" height="1.55556" rx="0.777778" fill="#FF4A19"/>
<rect x="18.666" y="18.7168" width="14" height="1.55556" rx="0.777778" fill="#FF4A19"/>
<rect x="18.666" y="24.1611" width="14" height="1.55556" rx="0.777778" fill="#FF4A19"/>
</svg>
