<svg width="18" height="19" viewBox="0 0 18 19" fill="none" xmlns="http://www.w3.org/2000/svg">
<path d="M17.2646 8.25774L1.43418 0.106538C1.29804 0.0364368 1.14854 0 0.997053 0C0.4464 0 0 0.4712 0 1.05244V1.08282C0 1.22404 0.0164046 1.36474 0.0488537 1.50174L1.56737 7.91324C1.60885 8.08839 1.74913 8.21776 1.91908 8.23771L8.59345 9.02051C8.82491 9.04763 9 9.25412 9 9.5C9 9.74588 8.82491 9.95237 8.59345 9.97949L1.91908 10.7623C1.74913 10.7822 1.60885 10.9116 1.56737 11.0868L0.0488537 17.4982C0.0164046 17.6353 0 17.776 0 17.9172V17.9476C0 18.5288 0.4464 19 0.997053 19C1.14854 19 1.29804 18.9636 1.43418 18.8934L17.2646 10.7423C17.7145 10.5106 18 10.0285 18 9.5C18 8.97154 17.7145 8.48937 17.2646 8.25774Z" fill="white"/>
</svg>
