<svg width="29" height="26" viewBox="0 0 29 26" fill="none" xmlns="http://www.w3.org/2000/svg">
<path d="M19.6533 26H9.17289C8.48258 26.0004 7.80433 25.8204 7.20639 25.4781C6.60846 25.1358 6.11193 24.6432 5.76677 24.05L0.526581 14.95C0.181639 14.3571 4.19617e-05 13.6846 4.19617e-05 13C4.19617e-05 12.3154 0.181639 11.6429 0.526581 11.05L5.76677 1.95C6.11193 1.35676 6.60846 0.864194 7.20639 0.521876C7.80433 0.179558 8.48258 -0.000438393 9.17289 8.01811e-07H19.6533C20.3436 -0.000438393 21.0218 0.179558 21.6198 0.521876C22.2177 0.864194 22.7142 1.35676 23.0594 1.95L28.2996 11.05C28.6445 11.6429 28.8261 12.3154 28.8261 13C28.8261 13.6846 28.6445 14.3571 28.2996 14.95L23.0594 24.05C22.7142 24.6432 22.2177 25.1358 21.6198 25.4781C21.0218 25.8204 20.3436 26.0004 19.6533 26ZM9.17289 2.6C8.94205 2.59909 8.71506 2.65873 8.51492 2.77287C8.31477 2.88702 8.14857 3.05161 8.03315 3.25L2.79296 12.35C2.67798 12.5476 2.61745 12.7718 2.61745 13C2.61745 13.2282 2.67798 13.4524 2.79296 13.65L8.03315 22.75C8.14857 22.9484 8.31477 23.113 8.51492 23.2271C8.71506 23.3413 8.94205 23.4009 9.17289 23.4H19.6533C19.8841 23.4009 20.1111 23.3413 20.3113 23.2271C20.5114 23.113 20.6776 22.9484 20.793 22.75L26.0332 13.65C26.1482 13.4524 26.2087 13.2282 26.2087 13C26.2087 12.7718 26.1482 12.5476 26.0332 12.35L20.793 3.25C20.6776 3.05161 20.5114 2.88702 20.3113 2.77287C20.1111 2.65873 19.8841 2.59909 19.6533 2.6H9.17289Z" fill="#11002E"/>
<path d="M14.6957 18.087C13.6896 18.087 12.7061 17.7887 11.8695 17.2297C11.033 16.6707 10.381 15.8763 9.99596 14.9467C9.61094 14.0172 9.5102 12.9944 9.70648 12.0076C9.90277 11.0209 10.3873 10.1144 11.0987 9.40302C11.8101 8.6916 12.7165 8.20711 13.7033 8.01083C14.6901 7.81455 15.7129 7.91529 16.6424 8.30031C17.5719 8.68533 18.3664 9.33734 18.9253 10.1739C19.4843 11.0104 19.7827 11.9939 19.7827 13C19.7827 14.3492 19.2467 15.6431 18.2927 16.5971C17.3387 17.5511 16.0448 18.087 14.6957 18.087ZM14.6957 10.4566C14.1926 10.4566 13.7009 10.6057 13.2826 10.8852C12.8643 11.1647 12.5383 11.5619 12.3458 12.0267C12.1533 12.4915 12.1029 13.0029 12.2011 13.4963C12.2992 13.9896 12.5415 14.4428 12.8972 14.7986C13.2529 15.1543 13.7061 15.3965 14.1995 15.4946C14.6929 15.5928 15.2043 15.5424 15.669 15.3499C16.1338 15.1574 16.531 14.8314 16.8105 14.4131C17.09 13.9949 17.2392 13.5031 17.2392 13C17.2392 12.3255 16.9712 11.6785 16.4942 11.2015C16.0172 10.7245 15.3703 10.4566 14.6957 10.4566Z" fill="#11002E"/>
</svg>
