<svg width="74" height="74" viewBox="0 0 74 74" fill="none" xmlns="http://www.w3.org/2000/svg">
<path d="M70.2377 30.2171C70.0742 29.4153 69.5988 28.7113 68.9162 28.26C68.2336 27.8087 67.3996 27.647 66.5978 27.8105C65.796 27.9741 65.092 28.4495 64.6407 29.1321C64.1894 29.8147 64.0277 30.6486 64.1913 31.4504C65.4565 37.6704 64.5512 44.1362 61.6262 49.7695C58.7013 55.4028 53.9335 59.8631 48.118 62.4066C42.3025 64.9501 35.7908 65.423 29.6688 63.7465C23.5468 62.07 18.1846 58.3455 14.4763 53.1939C10.7681 48.0424 8.93796 41.7753 9.29118 35.4377C9.64439 29.1002 12.1596 23.0752 16.4173 18.3677C20.675 13.6601 26.418 10.5545 32.6883 9.56866C38.9587 8.58285 45.3775 9.77645 50.8744 12.9504C51.5822 13.3528 52.4204 13.459 53.2062 13.2456C53.9919 13.0323 54.6614 12.5168 55.0686 11.8117C55.4757 11.1066 55.5873 10.2691 55.3792 9.48192C55.1711 8.69476 54.6601 8.02186 53.9577 7.61008C47.2475 3.74295 39.4145 2.2925 31.7645 3.50051C24.1145 4.70851 17.1097 8.50198 11.9176 14.2486C6.72543 19.9952 3.65975 27.3478 3.23152 35.0807C2.80329 42.8137 5.03839 50.4598 9.56425 56.7445C14.0901 63.0293 20.6333 67.573 28.1031 69.6183C35.573 71.6636 43.5182 71.0869 50.6143 67.9844C57.7105 64.8818 63.529 59.4408 67.0998 52.5683C70.6706 45.6959 71.7782 37.8071 70.2377 30.2171Z" fill="#4248FF"/>
<path d="M26.8461 31.7375C26.5616 31.443 26.2214 31.2081 25.8452 31.0465C25.469 30.885 25.0645 30.7999 24.655 30.7963C24.2456 30.7928 23.8396 30.8708 23.4607 31.0258C23.0818 31.1809 22.7375 31.4098 22.448 31.6993C22.1585 31.9888 21.9296 32.3331 21.7745 32.712C21.6195 33.0909 21.5415 33.4969 21.545 33.9063C21.5486 34.3158 21.6337 34.7203 21.7952 35.0965C21.9568 35.4727 22.1917 35.8129 22.4862 36.0974L34.0487 47.6599C34.6269 48.2379 35.4111 48.5626 36.2286 48.5626C37.0462 48.5626 37.8303 48.2379 38.4086 47.6599L64.6169 21.4515C64.9114 21.1671 65.1463 20.8269 65.3079 20.4507C65.4695 20.0745 65.5545 19.6699 65.5581 19.2605C65.5616 18.8511 65.4836 18.4451 65.3286 18.0662C65.1736 17.6872 64.9446 17.343 64.6551 17.0535C64.3656 16.764 64.0213 16.535 63.6424 16.38C63.2635 16.225 62.8575 16.1469 62.4481 16.1505C62.0387 16.1541 61.6341 16.2391 61.2579 16.4007C60.8817 16.5623 60.5415 16.7972 60.2571 17.0917L36.2286 41.1201L26.8461 31.7375Z" fill="url(#paint0_linear_1420_1516)"/>
<defs>
<linearGradient id="paint0_linear_1420_1516" x1="72.1117" y1="5.6645" x2="21.8974" y2="48.3278" gradientUnits="userSpaceOnUse">
<stop stop-color="#4248FF"/>
<stop offset="1" stop-color="#FF4A19"/>
</linearGradient>
</defs>
</svg>
