<svg width="32" height="27" viewBox="0 0 32 27" fill="none" xmlns="http://www.w3.org/2000/svg">
<path d="M17.021 8.2142H1.96474C1.5615 8.2142 1.17478 8.05402 0.889651 7.76889C0.604521 7.48376 0.444336 7.09704 0.444336 6.6938C0.444336 6.29057 0.604521 5.90385 0.889651 5.61872C1.17478 5.33359 1.5615 5.1734 1.96474 5.1734H17.0228C17.426 5.1734 17.8128 5.33359 18.0979 5.61872C18.383 5.90385 18.5432 6.29057 18.5432 6.6938C18.5432 7.09704 18.383 7.48376 18.0979 7.76889C17.8128 8.05402 17.426 8.2142 17.0228 8.2142H17.021Z" fill="#4248FF"/>
<path d="M30.0623 8.2142H26.2564C25.8532 8.2142 25.4665 8.05402 25.1813 7.76889C24.8962 7.48376 24.736 7.09704 24.736 6.6938C24.736 6.29057 24.8962 5.90385 25.1813 5.61872C25.4665 5.33359 25.8532 5.1734 26.2564 5.1734H30.0623C30.4655 5.1734 30.8522 5.33359 31.1374 5.61872C31.4225 5.90385 31.5827 6.29057 31.5827 6.6938C31.5827 7.09704 31.4225 7.48376 31.1374 7.76889C30.8522 8.05402 30.4655 8.2142 30.0623 8.2142Z" fill="#4248FF"/>
<path d="M30.0616 22.2554H15.0054C14.6022 22.2554 14.2154 22.0952 13.9303 21.8101C13.6452 21.525 13.485 21.1382 13.485 20.735C13.485 20.3318 13.6452 19.945 13.9303 19.6599C14.2154 19.3748 14.6022 19.2146 15.0054 19.2146H30.0616C30.4649 19.2146 30.8516 19.3748 31.1367 19.6599C31.4218 19.945 31.582 20.3318 31.582 20.735C31.582 21.1382 31.4218 21.525 31.1367 21.8101C30.8516 22.0952 30.4649 22.2554 30.0616 22.2554Z" fill="#4248FF"/>
<path d="M5.77061 22.2554H1.96474C1.5615 22.2554 1.17478 22.0952 0.889651 21.8101C0.604521 21.525 0.444336 21.1382 0.444336 20.735C0.444336 20.3318 0.604521 19.945 0.889651 19.6599C1.17478 19.3748 1.5615 19.2146 1.96474 19.2146H5.77061C6.17384 19.2146 6.56056 19.3748 6.84569 19.6599C7.13082 19.945 7.29101 20.3318 7.29101 20.735C7.29101 21.1382 7.13082 21.525 6.84569 21.8101C6.56056 22.0952 6.17384 22.2554 5.77061 22.2554Z" fill="#4248FF"/>
<path d="M10.3885 26.7606C9.17443 26.7607 7.98762 26.4008 6.97812 25.7264C5.96863 25.052 5.18179 24.0934 4.71711 22.9718C4.25244 21.8502 4.13079 20.616 4.36757 19.4253C4.60434 18.2346 5.1889 17.1408 6.04731 16.2823C6.90572 15.4238 7.99944 14.8391 9.19014 14.6022C10.3808 14.3654 11.6151 14.4869 12.7367 14.9514C13.8583 15.416 14.817 16.2027 15.4915 17.2122C16.166 18.2216 16.526 19.4084 16.526 20.6224C16.5249 22.2499 15.8779 23.8104 14.7272 24.9613C13.5764 26.1122 12.016 26.7593 10.3885 26.7606ZM10.3885 17.5257C9.77582 17.5255 9.17689 17.7071 8.66744 18.0474C8.15799 18.3877 7.7609 18.8714 7.52639 19.4374C7.29188 20.0034 7.23049 20.6263 7.34999 21.2271C7.46948 21.828 7.76449 22.38 8.1977 22.8132C8.63091 23.2464 9.18286 23.5414 9.78375 23.6609C10.3846 23.7804 11.0075 23.719 11.5735 23.4845C12.1394 23.25 12.6232 22.8529 12.9635 22.3435C13.3038 21.834 13.4853 21.2351 13.4852 20.6224C13.4839 19.8015 13.1573 19.0146 12.5768 18.4341C11.9963 17.8536 11.2094 17.527 10.3885 17.5257Z" fill="#4248FF"/>
<path d="M21.6381 12.8319C20.4241 12.8319 19.2373 12.4719 18.2279 11.7974C17.2185 11.1229 16.4318 10.1643 15.9672 9.04268C15.5026 7.92108 15.381 6.6869 15.6179 5.49621C15.8547 4.30553 16.4393 3.21181 17.2978 2.35337C18.1562 1.49493 19.2499 0.91033 20.4406 0.673488C21.6313 0.436645 22.8655 0.558202 23.9871 1.02278C25.1087 1.48737 26.0673 2.27411 26.7418 3.28353C27.4163 4.29294 27.7763 5.4797 27.7763 6.69371C27.7751 8.32131 27.1281 9.88192 25.9772 11.0328C24.8263 12.1837 23.2657 12.8307 21.6381 12.8319ZM21.6381 3.59696C21.0255 3.59696 20.4266 3.77863 19.9172 4.119C19.4079 4.45937 19.0109 4.94315 18.7765 5.50915C18.542 6.07515 18.4807 6.69796 18.6003 7.29881C18.7199 7.89965 19.0149 8.45155 19.4482 8.8847C19.8814 9.31785 20.4333 9.6128 21.0342 9.73224C21.6351 9.85168 22.2579 9.79026 22.8238 9.55573C23.3898 9.32121 23.8735 8.92412 24.2138 8.41468C24.554 7.90524 24.7356 7.30634 24.7355 6.69371C24.7342 5.87269 24.4074 5.08567 23.8268 4.50518C23.2462 3.92469 22.4591 3.59808 21.6381 3.59696Z" fill="#4248FF"/>
</svg>
