<svg width="22" height="26" viewBox="0 0 22 26" fill="none" xmlns="http://www.w3.org/2000/svg">
<g clip-path="url(#clip0_227_269)">
<path d="M11.0046 14.4591C14.709 12.8512 20.7202 12.6017 21.3037 17.5363C21.8872 22.4848 16.5409 26.2828 11.8595 25.6591C7.17808 25.0214 4.58634 22.8175 4.17927 21.1403C3.71791 19.2551 7.31377 16.067 11.0046 14.4591Z" fill="#4248FF"/>
<path d="M16.5545 0.500721C14.4648 -1.02403 11.9681 2.27497 11.6017 3.35616C11.7781 3.61952 12.1445 4.17398 12.2395 4.49279C10.4076 2.34428 3.74512 -2.25769 0.732745 1.63735C-1.27551 4.21556 1.18053 8.09674 4.3286 10.2591C7.36812 12.3522 10.9775 13.7938 12.2938 12.8096C15.4418 10.4254 19.7976 2.85715 16.5545 0.500721Z" fill="#4248FF"/>
</g>
<defs>
<clipPath id="clip0_227_269">
<rect width="21.358" height="25.6296" fill="white" transform="translate(0 0.0987549)"/>
</clipPath>
</defs>
</svg>
