<svg width="22" height="27" viewBox="0 0 22 27" fill="none" xmlns="http://www.w3.org/2000/svg">
<g clip-path="url(#clip0_797_1508)">
<path d="M11.0041 14.8468C14.7085 13.2389 20.7197 12.9894 21.3032 17.924C21.8867 22.8725 16.5404 26.6705 11.859 26.0468C7.17759 25.4091 4.58586 23.2052 4.17878 21.528C3.71742 19.6428 7.31328 16.4547 11.0041 14.8468Z" fill="#D3E6FC"/>
<path d="M16.5538 0.888294C14.4641 -0.636454 11.9674 2.66255 11.601 3.74373C11.7774 4.0071 12.1438 4.56155 12.2387 4.88036C10.4069 2.73185 3.74439 -1.87011 0.732012 2.02492C-1.27624 4.60314 1.1798 8.48431 4.32787 10.6467C7.36738 12.7397 10.9768 14.1813 12.293 13.1972C15.4411 10.813 19.7968 3.24472 16.5538 0.888294Z" fill="#D3E6FC"/>
</g>
<defs>
<clipPath id="clip0_797_1508">
<rect width="21.358" height="25.6296" fill="white" transform="translate(0 0.486328)"/>
</clipPath>
</defs>
</svg>
