<svg width="42" height="42" viewBox="0 0 42 42" fill="none" xmlns="http://www.w3.org/2000/svg">
<path d="M16.6263 10.3198C14.1183 11.32 12.0511 13.1849 10.7988 15.577H14.4049C14.7898 13.6948 15.5449 11.9078 16.6263 10.3198Z" fill="url(#paint0_linear_290_289)"/>
<path d="M13.8458 20.7694C13.8465 19.6112 13.9292 18.4544 14.0933 17.3079H10.0693C9.33563 19.5572 9.33563 21.9816 10.0693 24.2309H14.0933C13.9292 23.0844 13.8465 21.9276 13.8458 20.7694Z" fill="url(#paint1_linear_290_289)"/>
<path d="M25.3557 15.577C24.4237 11.8229 22.5527 9.51929 20.7692 9.51929C18.9856 9.51929 17.1112 11.8229 16.1826 15.577H25.3557Z" fill="url(#paint2_linear_290_289)"/>
<path d="M15.5767 20.7694C15.5744 21.928 15.6595 23.0851 15.8311 24.2309H25.7069C26.0461 21.9357 26.0461 19.6031 25.7069 17.3079H15.8311C15.6595 18.4537 15.5744 19.6108 15.5767 20.7694Z" fill="url(#paint3_linear_290_289)"/>
<path d="M10.7988 25.9617C12.0511 28.3538 14.1183 30.2187 16.6263 31.2189C15.5449 29.6309 14.7898 27.8439 14.4049 25.9617H10.7988Z" fill="url(#paint4_linear_290_289)"/>
<path d="M27.6923 20.7694C27.6916 21.9276 27.6089 23.0844 27.4448 24.2309H31.4689C32.2025 21.9816 32.2025 19.5572 31.4689 17.3079H27.4448C27.6089 18.4544 27.6916 19.6112 27.6923 20.7694Z" fill="url(#paint5_linear_290_289)"/>
<path d="M20.7692 0C16.6615 0 12.646 1.21809 9.23047 3.50025C5.81499 5.7824 3.15295 9.02611 1.58097 12.8212C0.00899902 16.6163 -0.402301 20.7923 0.399084 24.8211C1.20047 28.8499 3.17855 32.5507 6.08318 35.4553C8.98781 38.3599 12.6885 40.338 16.7174 41.1394C20.7462 41.9408 24.9222 41.5295 28.7173 39.9575C32.5124 38.3855 35.7561 35.7235 38.0382 32.308C40.3204 28.8925 41.5385 24.877 41.5385 20.7692C41.5321 15.2629 39.3418 9.98385 35.4482 6.09025C31.5546 2.19665 26.2756 0.00641289 20.7692 0ZM20.7692 33.75C18.2019 33.75 15.6922 32.9887 13.5575 31.5624C11.4228 30.136 9.75906 28.1087 8.77657 25.7368C7.79409 23.3648 7.53703 20.7548 8.03789 18.2368C8.53876 15.7188 9.77506 13.4058 11.5905 11.5904C13.4058 9.77505 15.7188 8.53875 18.2368 8.03788C20.7548 7.53702 23.3648 7.79408 25.7368 8.77656C28.1087 9.75905 30.136 11.4228 31.5624 13.5575C32.9887 15.6922 33.75 18.2019 33.75 20.7692C33.7461 24.2108 32.3773 27.5102 29.9437 29.9437C27.5102 32.3772 24.2108 33.7461 20.7692 33.75Z" fill="url(#paint6_linear_290_289)"/>
<path d="M16.1826 25.9617C17.1146 29.7157 18.9856 32.0194 20.7692 32.0194C22.5527 32.0194 24.4271 29.7157 25.3557 25.9617H16.1826Z" fill="url(#paint7_linear_290_289)"/>
<path d="M24.9116 10.3198C25.9931 11.9078 26.7482 13.6948 27.1331 15.577H30.7391C29.4868 13.1849 27.4196 11.32 24.9116 10.3198Z" fill="url(#paint8_linear_290_289)"/>
<path d="M24.9116 31.2189C27.4196 30.2187 29.4868 28.3538 30.7391 25.9617H27.1331C26.7482 27.8439 25.9931 29.6309 24.9116 31.2189Z" fill="url(#paint9_linear_290_289)"/>
<defs>
<linearGradient id="paint0_linear_290_289" x1="9" y1="-0.5" x2="36.5" y2="36.5" gradientUnits="userSpaceOnUse">
<stop stop-color="#7FCAFE"/>
<stop offset="1" stop-color="#D3E6FC"/>
</linearGradient>
<linearGradient id="paint1_linear_290_289" x1="6" y1="3.5" x2="37.5" y2="36.5" gradientUnits="userSpaceOnUse">
<stop stop-color="#7FCAFE"/>
<stop offset="1" stop-color="#D3E6FC"/>
</linearGradient>
<linearGradient id="paint2_linear_290_289" x1="10.5" y1="0.5" x2="34.5" y2="39.5" gradientUnits="userSpaceOnUse">
<stop stop-color="#7FCAFE"/>
<stop offset="1" stop-color="#D3E6FC"/>
</linearGradient>
<linearGradient id="paint3_linear_290_289" x1="8" y1="2" x2="36" y2="40" gradientUnits="userSpaceOnUse">
<stop stop-color="#7FCAFE"/>
<stop offset="1" stop-color="#D3E6FC"/>
</linearGradient>
<linearGradient id="paint4_linear_290_289" x1="4.5" y1="4" x2="35.5" y2="37.5" gradientUnits="userSpaceOnUse">
<stop stop-color="#7FCAFE"/>
<stop offset="1" stop-color="#D3E6FC"/>
</linearGradient>
<linearGradient id="paint5_linear_290_289" x1="6" y1="3" x2="36" y2="38.5" gradientUnits="userSpaceOnUse">
<stop stop-color="#7FCAFE"/>
<stop offset="1" stop-color="#D3E6FC"/>
</linearGradient>
<linearGradient id="paint6_linear_290_289" x1="7.5" y1="2.5" x2="37" y2="36.5" gradientUnits="userSpaceOnUse">
<stop stop-color="#7FCAFE"/>
<stop offset="1" stop-color="#D3E6FC"/>
</linearGradient>
<linearGradient id="paint7_linear_290_289" x1="9" y1="2.5" x2="35" y2="39.5" gradientUnits="userSpaceOnUse">
<stop stop-color="#7FCAFE"/>
<stop offset="1" stop-color="#D3E6FC"/>
</linearGradient>
<linearGradient id="paint8_linear_290_289" x1="8" y1="2" x2="37" y2="37.5" gradientUnits="userSpaceOnUse">
<stop stop-color="#7FCAFE"/>
<stop offset="1" stop-color="#D3E6FC"/>
</linearGradient>
<linearGradient id="paint9_linear_290_289" x1="6" y1="3" x2="37" y2="39" gradientUnits="userSpaceOnUse">
<stop stop-color="#7FCAFE"/>
<stop offset="1" stop-color="#D3E6FC"/>
</linearGradient>
</defs>
</svg>
